<svg xmlns="http://www.w3.org/2000/svg" viewBox="0 0 256 256" width="24" height="24"><path d="M12 2C6.477 2 2 6.477 2 12c0 5.013 3.693 9.153 8.505 9.876V14.65H8.031v-2.629h2.474v-1.749c0-2.896 1.411-4.167 3.818-4.167 1.153 0 1.762.085 2.051.124v2.294h-1.642c-1.022 0-1.379.969-1.379 2.061v1.437h2.995l-.406 2.629h-2.588v7.247C18.235 21.236 22 17.062 22 12c0-5.523-4.477-10-10-10z" transform="scale(10.66667)" fill="#eb5757" stroke-miterlimit="10" font-family="none" font-weight="none" font-size="none" text-anchor="none" style="mix-blend-mode:normal"/></svg>