<svg xmlns="http://www.w3.org/2000/svg" viewBox="0 0 256 256" width="24" height="24"><path d="m10.053 7.988 5.631 8.024h-1.497L8.566 7.988zM21 6v12a3 3 0 0 1-3 3H6a3 3 0 0 1-3-3V6a3 3 0 0 1 3-3h12a3 3 0 0 1 3 3zm-3.462 11-4.186-5.99L16.774 7h-1.311l-2.704 3.16L10.552 7h-3.85l3.941 5.633L6.906 17h1.333l3.001-3.516L13.698 17z" transform="scale(10.66667)" fill="#eb5757" stroke-miterlimit="10" font-family="none" font-weight="none" font-size="none" text-anchor="none" style="mix-blend-mode:normal"/></svg>